:FULLY-SPECIFIED
:FORCE-ALL-JOINTS-BE-3DOF
:DEGREES
34
root 5.99049 16.8907 -28.081 10.0244 -1.60153 -2.41973
lfemur -20.8965 2.42065 -19.667
ltibia 34.8953 0 0
lfoot -35.3502 3.19404 0
ltoes 36.4397 0 0
rfemur -16.852 6.90894 19.7355
rtibia 30.6111 0 0
rfoot -27.5509 -18.9824 0
rtoes 14.1216 0 0
lowerback -5.28018 2.58029 -0.864612
upperback -1.93452 3.47343 0.923853
thorax 0.853223 1.7437 1.63483
lowerneck -9.59182 -1.72773 2.55297
upperneck -2.64945 -2.55463 0.726689
head 0.747422 -1.28044 -0.287624
lclavicle -2.81172e-14 2.23953e-15 0
lhumerus -41.4877 -12.6772 97.0309
lradius 38.6958 0 0
lwrist 5.50978 0 0
lhand -10.9911 6.28337 0
lfingers 7.12502 0 0
lthumb 15.0291 35.7179 0
rclavicle -2.81172e-14 2.23953e-15 0
rhumerus -40.7282 -4.71485 -88.639
rradius 39.4316 0 0
rwrist 10.758 0 0
rhand -26.7391 -20.0802 0
rfingers 7.12502 0 0
rthumb -0.168053 -50.0594 0
35
root 5.9865 16.8866 -28.0837 10.0559 -1.45713 -2.44791
lfemur -21.2989 2.81493 -19.6351
ltibia 35.4284 0 0
lfoot -34.9172 2.65582 0
ltoes 36.3768 0 0
rfemur -16.8748 6.65413 19.7924
rtibia 30.6158 0 0
rfoot -27.5448 -18.9358 0
rtoes 13.3925 0 0
lowerback -5.23521 2.56784 -0.728943
upperback -1.91582 3.45179 0.878854
thorax 0.857079 1.73259 1.51047
lowerneck -9.60025 -1.74635 2.53518
upperneck -2.74071 -2.57563 0.777203
head 0.720938 -1.29118 -0.269132
lclavicle -2.7211e-14 1.74417e-15 0
lhumerus -41.4512 -12.7062 96.9461
lradius 38.8713 0 0
lwrist 5.58137 0 0
lhand -10.9897 6.15441 0
lfingers 7.12502 0 0
lthumb 15.0304 35.5888 0
rclavicle -2.7211e-14 1.74417e-15 0
rhumerus -40.6985 -4.53342 -88.758
rradius 39.5253 0 0
rwrist 10.6338 0 0
rhand -26.6797 -20.149 0
rfingers 7.12502 0 0
rthumb -0.110727 -50.128 0
36
root 5.98252 16.8825 -28.0865 10.0874 -1.31274 -2.47609
lfemur -21.7014 3.20922 -19.6033
ltibia 35.9615 0 0
lfoot -34.4842 2.11761 0
ltoes 36.3139 0 0
rfemur -16.8976 6.39933 19.8494
rtibia 30.6204 0 0
rfoot -27.5387 -18.8891 0
rtoes 12.6634 0 0
lowerback -5.19024 2.5554 -0.593274
upperback -1.89711 3.43016 0.833855
thorax 0.860935 1.72148 1.38611
lowerneck -9.60868 -1.76497 2.51739
upperneck -2.83198 -2.59662 0.827718
head 0.694454 -1.30193 -0.25064
lclavicle -2.63049e-14 1.24881e-15 0
lhumerus -41.4147 -12.7353 96.8612
lradius 39.0468 0 0
lwrist 5.65296 0 0
lhand -10.9883 6.02546 0
lfingers 7.12502 0 0
lthumb 15.0318 35.4598 0
rclavicle -2.63049e-14 1.24881e-15 0
rhumerus -40.6687 -4.35199 -88.8769
rradius 39.619 0 0
rwrist 10.5096 0 0
rhand -26.6204 -20.2178 0
rfingers 7.12502 0 0
rthumb -0.0534007 -50.1966 0
37
root 5.97853 16.8784 -28.0893 10.1189 -1.16834 -2.50427
lfemur -22.1038 3.60351 -19.5714
ltibia 36.4946 0 0
lfoot -34.0513 1.57939 0
ltoes 36.251 0 0
rfemur -16.9204 6.14453 19.9063
rtibia 30.6251 0 0
rfoot -27.5326 -18.8424 0
rtoes 11.9343 0 0
lowerback -5.14527 2.54295 -0.457605
upperback -1.87841 3.40852 0.788856
thorax 0.864791 1.71037 1.26175
lowerneck -9.61711 -1.78359 2.4996
upperneck -2.92324 -2.61762 0.878232
head 0.66797 -1.31267 -0.232148
lclavicle -2.53987e-14 7.53452e-16 0
lhumerus -41.3782 -12.7644 96.7763
lradius 39.2223 0 0
lwrist 5.72455 0 0
lhand -10.9868 5.89651 0
lfingers 7.12502 0 0
lthumb 15.0332 35.3307 0
rclavicle -2.53987e-14 7.53452e-16 0
rhumerus -40.639 -4.17056 -88.9958
rradius 39.7127 0 0
rwrist 10.3853 0 0
rhand -26.561 -20.2866 0
rfingers 7.12502 0 0
rthumb 0.00392561 -50.2653 0
38
root 5.97455 16.8744 -28.0921 10.1504 -1.02394 -2.53246
lfemur -22.5062 3.9978 -19.5395
ltibia 37.0278 0 0
lfoot -33.6183 1.04117 0
ltoes 36.1881 0 0
rfemur -16.9432 5.88973 19.9633
rtibia 30.6297 0 0
rfoot -27.5264 -18.7957 0
rtoes 11.2052 0 0
lowerback -5.1003 2.53051 -0.321936
upperback -1.8597 3.38689 0.743858
thorax 0.868647 1.69926 1.13739
lowerneck -9.62555 -1.8022 2.4818
upperneck -3.0145 -2.63862 0.928746
head 0.641487 -1.32342 -0.213657
lclavicle -2.44926e-14 2.58092e-16 0
lhumerus -41.3417 -12.7935 96.6914
lradius 39.3977 0 0
lwrist 5.79614 0 0
lhand -10.9854 5.76756 0
lfingers 7.12502 0 0
lthumb 15.0346 35.2017 0
rclavicle -2.44926e-14 2.58092e-16 0
rhumerus -40.6092 -3.98914 -89.1147
rradius 39.8063 0 0
rwrist 10.2611 0 0
rhand -26.5017 -20.3553 0
rfingers 7.12502 0 0
rthumb 0.0612519 -50.3339 0
39
root 5.97056 16.8703 -28.0949 10.1818 -0.879539 -2.56064
lfemur -22.9087 4.39209 -19.5076
ltibia 37.5609 0 0
lfoot -33.1853 0.502949 0
ltoes 36.1252 0 0
rfemur -16.966 5.63492 20.0202
rtibia 30.6344 0 0
rfoot -27.5203 -18.749 0
rtoes 10.4761 0 0
lowerback -5.05533 2.51806 -0.186267
upperback -1.841 3.36525 0.698859
thorax 0.872503 1.68815 1.01303
lowerneck -9.63398 -1.82082 2.46401
upperneck -3.10576 -2.65961 0.97926
head 0.615003 -1.33416 -0.195165
lclavicle -2.35864e-14 -2.37268e-16 0
lhumerus -41.3052 -12.8226 96.6066
lradius 39.5732 0 0
lwrist 5.86773 0 0
lhand -10.984 5.63861 0
lfingers 7.12502 0 0
lthumb 15.036 35.0726 0
rclavicle -2.35864e-14 -2.37268e-16 0
rhumerus -40.5795 -3.80771 -89.2337
rradius 39.9 0 0
rwrist 10.1369 0 0
rhand -26.4423 -20.4241 0
rfingers 7.12502 0 0
rthumb 0.118578 -50.4025 0
40
root 5.96658 16.8662 -28.0976 10.2133 -0.73514 -2.58882
lfemur -23.3111 4.78637 -19.4757
ltibia 38.094 0 0
lfoot -32.7524 -0.0352697 0
ltoes 36.0623 0 0
rfemur -16.9888 5.38012 20.0772
rtibia 30.6391 0 0
rfoot -27.5142 -18.7024 0
rtoes 9.74698 0 0
lowerback -5.01036 2.50561 -0.0505977
upperback -1.82229 3.34362 0.65386
thorax 0.876359 1.67703 0.888675
lowerneck -9.64241 -1.83944 2.44622
upperneck -3.19702 -2.68061 1.02977
head 0.588519 -1.3449 -0.176673
lclavicle -2.26803e-14 -7.32627e-16 0
lhumerus -41.2687 -12.8516 96.5217
lradius 39.7487 0 0
lwrist 5.93933 0 0
lhand -10.9825 5.50965 0
lfingers 7.12502 0 0
lthumb 15.0373 34.9436 0
rclavicle -2.26803e-14 -7.32627e-16 0
rhumerus -40.5497 -3.62628 -89.3526
rradius 39.9937 0 0
rwrist 10.0126 0 0
rhand -26.383 -20.4929 0
rfingers 7.12502 0 0
rthumb 0.175905 -50.4712 0
41
root 5.96259 16.8622 -28.1004 10.2448 -0.590742 -2.61701
lfemur -23.7135 5.18066 -19.4438
ltibia 38.6271 0 0
lfoot -32.3194 -0.573488 0
ltoes 35.9994 0 0
rfemur -17.0116 5.12532 20.1341
rtibia 30.6437 0 0
rfoot -27.5081 -18.6557 0
rtoes 9.01787 0 0
lowerback -4.96539 2.49317 0.0850713
upperback -1.80359 3.32198 0.608861
thorax 0.880215 1.66592 0.764316
lowerneck -9.65084 -1.85805 2.42843
upperneck -3.28828 -2.70161 1.08029
head 0.562036 -1.35565 -0.158181
lclavicle -2.17741e-14 -1.22799e-15 0
lhumerus -41.2322 -12.8807 96.4368
lradius 39.9242 0 0
lwrist 6.01092 0 0
lhand -10.9811 5.3807 0
lfingers 7.12502 0 0
lthumb 15.0387 34.8145 0
rclavicle -2.17741e-14 -1.22799e-15 0
rhumerus -40.52 -3.44485 -89.4715
rradius 40.0874 0 0
rwrist 9.88839 0 0
rhand -26.3236 -20.5617 0
rfingers 7.12502 0 0
rthumb 0.233231 -50.5398 0
42
root 5.95861 16.8581 -28.1032 10.2763 -0.446343 -2.64519
lfemur -24.116 5.57495 -19.4119
ltibia 39.1602 0 0
lfoot -31.8864 -1.11171 0
ltoes 35.9365 0 0
rfemur -17.0344 4.87052 20.1911
rtibia 30.6484 0 0
rfoot -27.502 -18.609 0
rtoes 8.28877 0 0
lowerback -4.92042 2.48072 0.22074
upperback -1.78488 3.30035 0.563863
thorax 0.884071 1.65481 0.639956
lowerneck -9.65927 -1.87667 2.41064
upperneck -3.37954 -2.7226 1.1308
head 0.535552 -1.36639 -0.13969
lclavicle -2.0868e-14 -1.72335e-15 0
lhumerus -41.1957 -12.9098 96.3519
lradius 40.0997 0 0
lwrist 6.08251 0 0
lhand -10.9797 5.25175 0
lfingers 7.12502 0 0
lthumb 15.0401 34.6855 0
rclavicle -2.0868e-14 -1.72335e-15 0
rhumerus -40.4902 -3.26342 -89.5904
rradius 40.181 0 0
rwrist 9.76416 0 0
rhand -26.2643 -20.6305 0
rfingers 7.12502 0 0
rthumb 0.290557 -50.6084 0
